<svg width="8" height="4" viewBox="0 0 8 4" fill="none" xmlns="http://www.w3.org/2000/svg">
<path d="M6.06863 4C6.67444 4 6.97735 4 7.11762 3.8802C7.23932 3.77626 7.30391 3.62033 7.29135 3.46077C7.27688 3.27688 7.06269 3.06269 6.63431 2.63431L4.56569 0.565685C4.36768 0.367676 4.26867 0.268672 4.15451 0.231578C4.05409 0.198949 3.94591 0.198949 3.84549 0.231578C3.73133 0.268672 3.63232 0.367676 3.43431 0.565685L1.36568 2.63432C0.937308 3.06269 0.72312 3.27688 0.708648 3.46077C0.69609 3.62033 0.760678 3.77626 0.882382 3.8802C1.02265 4 1.32555 4 1.93137 4L6.06863 4Z" fill="#212121"/>
</svg>
